<?xml version="1.0" encoding="UTF-8"?>
<svg xmlns="http://www.w3.org/2000/svg" xmlns:xlink="http://www.w3.org/1999/xlink" width="512px" height="512px" viewBox="0 0 512 512" version="1.1">
<g id="surface1">
<rect x="0" y="0" width="512" height="512" style="fill:rgb(100%,100%,100%);fill-opacity:1;stroke:none;"/>
<path style=" stroke:none;fill-rule:nonzero;fill:rgb(86.27451%,9.019608%,11.372549%);fill-opacity:1;" d="M 199.109375 0 L 312.890625 0 L 312.890625 512 L 199.109375 512 Z M 199.109375 0 "/>
<path style=" stroke:none;fill-rule:nonzero;fill:rgb(0.392157%,16.470588%,52.941176%);fill-opacity:1;" d="M 0 170.667969 L 512 170.667969 L 512 341.332031 L 0 341.332031 Z M 0 170.667969 "/>
<path style=" stroke:none;fill-rule:nonzero;fill:rgb(100%,100%,100%);fill-opacity:1;" d="M 256 177.777344 L 251.605469 198.066406 L 258.367188 201.363281 Z M 256 177.777344 "/>
<path style=" stroke:none;fill-rule:nonzero;fill:rgb(100%,100%,100%);fill-opacity:1;" d="M 256 177.777344 L 260.394531 198.066406 L 253.632812 201.363281 Z M 256 177.777344 "/>
<path style=" stroke:none;fill-rule:nonzero;fill:rgb(100%,100%,100%);fill-opacity:1;" d="M 269.527344 192.519531 L 255.304688 192.519531 L 255.304688 203.183594 Z M 269.527344 192.519531 "/>
<path style=" stroke:none;fill-rule:nonzero;fill:rgb(100%,100%,100%);fill-opacity:1;" d="M 269.527344 192.519531 L 258.019531 205.058594 L 253.839844 196.429688 Z M 269.527344 192.519531 "/>
<path style=" stroke:none;fill-rule:nonzero;fill:rgb(100%,100%,100%);fill-opacity:1;" d="M 242.472656 192.519531 L 253.980469 205.058594 L 258.160156 196.429688 Z M 242.472656 192.519531 "/>
<path style=" stroke:none;fill-rule:nonzero;fill:rgb(100%,100%,100%);fill-opacity:1;" d="M 242.472656 192.519531 L 256.695312 192.519531 L 256.695312 203.183594 Z M 242.472656 192.519531 "/>
<path style=" stroke:none;fill-rule:nonzero;fill:rgb(100%,100%,100%);fill-opacity:1;" d="M 264.359375 216.371094 L 259.964844 196.082031 L 253.203125 199.378906 Z M 264.359375 216.371094 "/>
<path style=" stroke:none;fill-rule:nonzero;fill:rgb(100%,100%,100%);fill-opacity:1;" d="M 264.359375 216.371094 L 252.855469 203.832031 L 257.035156 195.203125 Z M 264.359375 216.371094 "/>
<path style=" stroke:none;fill-rule:nonzero;fill:rgb(100%,100%,100%);fill-opacity:1;" d="M 247.640625 216.371094 L 259.144531 203.832031 L 254.964844 195.203125 Z M 247.640625 216.371094 "/>
<path style=" stroke:none;fill-rule:nonzero;fill:rgb(100%,100%,100%);fill-opacity:1;" d="M 247.640625 216.371094 L 252.035156 196.082031 L 258.796875 199.378906 Z M 247.640625 216.371094 "/>
<path style=" stroke:none;fill-rule:nonzero;fill:rgb(100%,100%,100%);fill-opacity:1;" d="M 331.851562 224.90625 L 327.457031 245.195312 L 334.21875 248.492188 Z M 331.851562 224.90625 "/>
<path style=" stroke:none;fill-rule:nonzero;fill:rgb(100%,100%,100%);fill-opacity:1;" d="M 331.851562 224.90625 L 336.246094 245.195312 L 329.484375 248.492188 Z M 331.851562 224.90625 "/>
<path style=" stroke:none;fill-rule:nonzero;fill:rgb(100%,100%,100%);fill-opacity:1;" d="M 345.378906 239.648438 L 331.15625 239.648438 L 331.15625 250.3125 Z M 345.378906 239.648438 "/>
<path style=" stroke:none;fill-rule:nonzero;fill:rgb(100%,100%,100%);fill-opacity:1;" d="M 345.378906 239.648438 L 333.871094 252.1875 L 329.691406 243.558594 Z M 345.378906 239.648438 "/>
<path style=" stroke:none;fill-rule:nonzero;fill:rgb(100%,100%,100%);fill-opacity:1;" d="M 318.324219 239.648438 L 329.832031 252.1875 L 334.011719 243.558594 Z M 318.324219 239.648438 "/>
<path style=" stroke:none;fill-rule:nonzero;fill:rgb(100%,100%,100%);fill-opacity:1;" d="M 318.324219 239.648438 L 332.546875 239.648438 L 332.546875 250.3125 Z M 318.324219 239.648438 "/>
<path style=" stroke:none;fill-rule:nonzero;fill:rgb(100%,100%,100%);fill-opacity:1;" d="M 340.210938 263.5 L 335.816406 243.210938 L 329.054688 246.503906 Z M 340.210938 263.5 "/>
<path style=" stroke:none;fill-rule:nonzero;fill:rgb(100%,100%,100%);fill-opacity:1;" d="M 340.210938 263.5 L 328.707031 250.960938 L 332.886719 242.328125 Z M 340.210938 263.5 "/>
<path style=" stroke:none;fill-rule:nonzero;fill:rgb(100%,100%,100%);fill-opacity:1;" d="M 323.492188 263.5 L 335 250.960938 L 330.820312 242.328125 Z M 323.492188 263.5 "/>
<path style=" stroke:none;fill-rule:nonzero;fill:rgb(100%,100%,100%);fill-opacity:1;" d="M 323.492188 263.5 L 327.886719 243.210938 L 334.648438 246.503906 Z M 323.492188 263.5 "/>
<path style=" stroke:none;fill-rule:nonzero;fill:rgb(100%,100%,100%);fill-opacity:1;" d="M 287.417969 291.554688 L 283.023438 311.84375 L 289.785156 315.140625 Z M 287.417969 291.554688 "/>
<path style=" stroke:none;fill-rule:nonzero;fill:rgb(100%,100%,100%);fill-opacity:1;" d="M 287.417969 291.554688 L 291.8125 311.84375 L 285.050781 315.140625 Z M 287.417969 291.554688 "/>
<path style=" stroke:none;fill-rule:nonzero;fill:rgb(100%,100%,100%);fill-opacity:1;" d="M 300.945312 306.296875 L 286.722656 306.296875 L 286.722656 316.964844 Z M 300.945312 306.296875 "/>
<path style=" stroke:none;fill-rule:nonzero;fill:rgb(100%,100%,100%);fill-opacity:1;" d="M 300.945312 306.296875 L 289.4375 318.835938 L 285.257812 310.207031 Z M 300.945312 306.296875 "/>
<path style=" stroke:none;fill-rule:nonzero;fill:rgb(100%,100%,100%);fill-opacity:1;" d="M 273.894531 306.296875 L 285.398438 318.835938 L 289.578125 310.207031 Z M 273.894531 306.296875 "/>
<path style=" stroke:none;fill-rule:nonzero;fill:rgb(100%,100%,100%);fill-opacity:1;" d="M 273.894531 306.296875 L 288.113281 306.296875 L 288.113281 316.964844 Z M 273.894531 306.296875 "/>
<path style=" stroke:none;fill-rule:nonzero;fill:rgb(100%,100%,100%);fill-opacity:1;" d="M 295.777344 330.148438 L 291.382812 309.859375 L 284.621094 313.15625 Z M 295.777344 330.148438 "/>
<path style=" stroke:none;fill-rule:nonzero;fill:rgb(100%,100%,100%);fill-opacity:1;" d="M 295.777344 330.148438 L 284.273438 317.609375 L 288.453125 308.980469 Z M 295.777344 330.148438 "/>
<path style=" stroke:none;fill-rule:nonzero;fill:rgb(100%,100%,100%);fill-opacity:1;" d="M 279.058594 330.148438 L 290.566406 317.609375 L 286.386719 308.980469 Z M 279.058594 330.148438 "/>
<path style=" stroke:none;fill-rule:nonzero;fill:rgb(100%,100%,100%);fill-opacity:1;" d="M 279.058594 330.148438 L 283.453125 309.859375 L 290.21875 313.15625 Z M 279.058594 330.148438 "/>
<path style=" stroke:none;fill-rule:nonzero;fill:rgb(100%,100%,100%);fill-opacity:1;" d="M 180.148438 224.90625 L 184.542969 245.195312 L 177.78125 248.492188 Z M 180.148438 224.90625 "/>
<path style=" stroke:none;fill-rule:nonzero;fill:rgb(100%,100%,100%);fill-opacity:1;" d="M 180.148438 224.90625 L 175.753906 245.195312 L 182.515625 248.492188 Z M 180.148438 224.90625 "/>
<path style=" stroke:none;fill-rule:nonzero;fill:rgb(100%,100%,100%);fill-opacity:1;" d="M 166.621094 239.648438 L 180.84375 239.648438 L 180.84375 250.3125 Z M 166.621094 239.648438 "/>
<path style=" stroke:none;fill-rule:nonzero;fill:rgb(100%,100%,100%);fill-opacity:1;" d="M 166.621094 239.648438 L 178.128906 252.1875 L 182.308594 243.558594 Z M 166.621094 239.648438 "/>
<path style=" stroke:none;fill-rule:nonzero;fill:rgb(100%,100%,100%);fill-opacity:1;" d="M 193.675781 239.648438 L 182.167969 252.1875 L 177.988281 243.558594 Z M 193.675781 239.648438 "/>
<path style=" stroke:none;fill-rule:nonzero;fill:rgb(100%,100%,100%);fill-opacity:1;" d="M 193.675781 239.648438 L 179.453125 239.648438 L 179.453125 250.3125 Z M 193.675781 239.648438 "/>
<path style=" stroke:none;fill-rule:nonzero;fill:rgb(100%,100%,100%);fill-opacity:1;" d="M 171.789062 263.5 L 176.183594 243.210938 L 182.945312 246.503906 Z M 171.789062 263.5 "/>
<path style=" stroke:none;fill-rule:nonzero;fill:rgb(100%,100%,100%);fill-opacity:1;" d="M 171.789062 263.5 L 183.292969 250.960938 L 179.113281 242.328125 Z M 171.789062 263.5 "/>
<path style=" stroke:none;fill-rule:nonzero;fill:rgb(100%,100%,100%);fill-opacity:1;" d="M 188.507812 263.5 L 177 250.960938 L 181.179688 242.328125 Z M 188.507812 263.5 "/>
<path style=" stroke:none;fill-rule:nonzero;fill:rgb(100%,100%,100%);fill-opacity:1;" d="M 188.507812 263.5 L 184.113281 243.210938 L 177.351562 246.503906 Z M 188.507812 263.5 "/>
<path style=" stroke:none;fill-rule:nonzero;fill:rgb(100%,100%,100%);fill-opacity:1;" d="M 224.582031 291.554688 L 228.976562 311.84375 L 222.214844 315.140625 Z M 224.582031 291.554688 "/>
<path style=" stroke:none;fill-rule:nonzero;fill:rgb(100%,100%,100%);fill-opacity:1;" d="M 224.582031 291.554688 L 220.1875 311.84375 L 226.949219 315.140625 Z M 224.582031 291.554688 "/>
<path style=" stroke:none;fill-rule:nonzero;fill:rgb(100%,100%,100%);fill-opacity:1;" d="M 211.054688 306.296875 L 225.277344 306.296875 L 225.277344 316.964844 Z M 211.054688 306.296875 "/>
<path style=" stroke:none;fill-rule:nonzero;fill:rgb(100%,100%,100%);fill-opacity:1;" d="M 211.054688 306.296875 L 222.5625 318.835938 L 226.742188 310.207031 Z M 211.054688 306.296875 "/>
<path style=" stroke:none;fill-rule:nonzero;fill:rgb(100%,100%,100%);fill-opacity:1;" d="M 238.105469 306.296875 L 226.601562 318.835938 L 222.421875 310.207031 Z M 238.105469 306.296875 "/>
<path style=" stroke:none;fill-rule:nonzero;fill:rgb(100%,100%,100%);fill-opacity:1;" d="M 238.105469 306.296875 L 223.886719 306.296875 L 223.886719 316.964844 Z M 238.105469 306.296875 "/>
<path style=" stroke:none;fill-rule:nonzero;fill:rgb(100%,100%,100%);fill-opacity:1;" d="M 216.222656 330.148438 L 220.617188 309.859375 L 227.378906 313.15625 Z M 216.222656 330.148438 "/>
<path style=" stroke:none;fill-rule:nonzero;fill:rgb(100%,100%,100%);fill-opacity:1;" d="M 216.222656 330.148438 L 227.726562 317.609375 L 223.546875 308.980469 Z M 216.222656 330.148438 "/>
<path style=" stroke:none;fill-rule:nonzero;fill:rgb(100%,100%,100%);fill-opacity:1;" d="M 232.941406 330.148438 L 221.433594 317.609375 L 225.613281 308.980469 Z M 232.941406 330.148438 "/>
<path style=" stroke:none;fill-rule:nonzero;fill:rgb(100%,100%,100%);fill-opacity:1;" d="M 232.941406 330.148438 L 228.546875 309.859375 L 221.78125 313.15625 Z M 232.941406 330.148438 "/>
</g>
</svg>
